<svg id="logoUsito" width="140" version="1.1" viewBox="0 0 1080 440" xmlns="http://www.w3.org/2000/svg">
                    <defs>
                        <style>.cls-1{fill:#00a759;}.cls-2{fill:#fff;}.cls-3{fill:#447d5c;}.cls-4{fill:#95c14e;}.cls-5{fill:#486b5d;}.cls-6{fill:#79b551;}</style>
                    </defs>
                    <rect class="cls-1" x="784.84" y="193.35" width="195.16" height="99.94"></rect>
                    <path class="cls-2" d="m817.72 268.68c-3.96-4.47-5.93-11.4-5.93-20.79v-27.8c0-2.04-1.47-3.78-3.48-4.12l-2.58-0.44v-4.27h20.96v4.27l-2.28 0.47c-1.83 0.37-3.14 1.98-3.14 3.85v28.98c0 7.74 1.38 13.32 4.14 16.73s6.73 5.12 11.91 5.12 9.06-1.82 11.65-5.46 3.88-8.93 3.88-15.88v-29.31c0-1.97-1.39-3.68-3.32-4.08l-2.02-0.42v-4.27h18.06v4.27l-2.62 0.43c-2.08 0.34-3.61 2.14-3.61 4.25v28.7c0 8.88-2.11 15.51-6.32 19.89s-9.82 6.57-16.82 6.57c-8.37 0-14.53-2.23-18.48-6.7z"></path>
                    <path class="cls-2" d="m928.34 275.08c-2.33-0.51-4.87-1.28-7.68-2.05-1.79-0.49-3.84-1.02-3.84-1.02l0.68-15.45h5.46s0.12 9.39 1.45 11.1c0.69 0.88 2.55 1.72 4.74 2.43s4.6 1.07 7.21 1.07c4.32 0 7.61-0.97 9.86-2.9s3.37-4.61 3.37-8.02c0-2.22-0.61-4.13-1.84-5.72-1.22-1.59-2.85-2.96-4.87-4.1s-4.8-2.48-8.32-4.01c-3.19-1.42-5.96-2.87-8.32-4.35s-4.41-3.46-6.15-5.93c-1.74-2.48-2.6-5.45-2.6-8.92 0-3.13 0.84-5.93 2.52-8.41s4.1-4.42 7.26-5.85c3.16-1.42 6.84-2.13 11.06-2.13 2.62 0 4.94 0.2 6.96 0.6s4.31 0.94 6.87 1.62c1.18 0.37 2.9 0.77 2.9 0.77l-0.51 14.34h-5.21s0.07-8.76-1.71-10.5c-0.61-0.6-1.75-1.11-3.54-1.62s-3.74-0.77-5.85-0.77c-3.93 0-6.9 0.83-8.92 2.48s-3.03 4.04-3.03 7.17c0 2.28 0.61 4.18 1.84 5.72 1.22 1.54 2.75 2.85 4.57 3.93s4.72 2.56 8.71 4.44c3.7 1.77 6.71 3.36 9.05 4.78 2.33 1.42 4.34 3.29 6.02 5.59 1.68 2.31 2.52 5.05 2.52 8.24 0 3.02-0.84 5.92-2.52 8.71s-4.24 5.08-7.68 6.87-7.61 2.69-12.51 2.69c-2.96 0-5.61-0.26-7.94-0.77z"></path>
                    <path class="cls-2" d="m907.78 232.73c-1.78-2.96-4.27-5.29-7.46-6.98s-8.38-2.54-12.62-2.54h-16.67v3.05s3.77 0 3.77 2.11c0 0-0.08 9.4-0.08 14.92s0.08 14.98 0.08 14.98c0 1.75-3.77 2.08-3.77 2.08v3.02h16.9c4.22 0 9.39-0.85 12.55-2.55 3.17-1.7 5.62-4.04 7.36-7.01s2.61-6.34 2.61-10.11v-0.8c0-3.82-0.89-7.22-2.68-10.18zm-4.34 10.91c0 3.19-0.66 6.03-1.98 8.54s-3.19 4.48-5.59 5.92c-2.41 1.44-6.33 2.16-9.54 2.16h-5.34v-33.94h5.16c3.22 0 7.17 0.71 9.59 2.14s4.31 3.4 5.67 5.9 2.03 5.37 2.03 8.6v0.68z"></path>
                    <path class="cls-4" d="M100,100h27.1v124.84c0,29.57,19.16,46.82,48.73,46.82s49.28-17.25,49.28-47.36V100h27.1v124.84c0,42.98-30.94,71.73-76.11,71.73s-76.11-28.74-76.11-71.73V100Z"></path>
                    <path class="cls-5" d="m654.55 96.71c55.85 0 99.1 42.98 99.1 98.56s-43.26 101.29-99.1 101.29-99.38-44.35-99.38-101.29 43.53-98.56 99.38-98.56zm0 174.94c39.42 0 71.18-32.85 71.18-76.38s-31.76-73.92-71.18-73.92-71.46 31.76-71.46 73.92 32.03 76.38 71.46 76.38z"></path>
                    <path class="cls-1" d="m398.63 147.09h27.1v146.2h-27.1v-146.2zm0-47.09h27.1v23.54h-27.1v-23.54z"></path>
                    <path class="cls-6" d="M291.95,197.18c0-15.33,14.52-28.66,35.04-28.2,26.84,.6,54.75,25,54.75,25v-30.74s-18.89-19.44-54.75-19.44c-27.99,0-49.78,14.1-58.39,34.3-2.59,6.07-4.03,12.68-4.03,19.64,0,7.43,1.47,13.8,4.03,19.32,17.94,38.62,89.6,36.29,89.6,72.94,0,18.34-15.33,28.42-33.4,28.47-24.63,.06-45.26-14.56-56.2-24.21v31.22c10.1,7.52,29.06,18.18,55.65,18.18,38.33,0,61.33-24.64,61.33-54.48,0-62.69-93.63-52.02-93.63-91.99Z"></path>
                    <path class="cls-3" d="M553.3,147.08h-114.65v23.54h44.78v169.74h27.1V170.63h34.83c1.79-8.26,4.46-16.14,7.94-23.54Z"></path>
                    <path class="cls-5" d="m567.18 319.09h7.73v35.9h18.4v6.65h-26.13v-42.55z"></path>
                    <path class="cls-5" d="M611.66,330.36c8.81,0,13.55,6.41,13.55,14.5,0,.9-.18,2.94-.18,2.94h-21.1c.48,5.34,4.62,8.09,9.17,8.09,4.91,0,8.81-3.36,8.81-3.36l2.94,5.45s-4.68,4.38-12.29,4.38c-10.13,0-16.42-7.31-16.42-16,0-9.41,6.42-16,15.52-16Zm5.87,12.22c-.12-4.13-2.7-6.35-6.05-6.35-3.9,0-6.59,2.4-7.31,6.35h13.37Z"></path>
                    <path class="cls-5" d="M658.34,330.36c6.72,0,8.81,3.89,8.81,3.89h.12s-.06-.78-.06-1.74v-13.42h7.61v42.55h-7.19v-2.52c0-1.14,.12-1.98,.12-1.98h-.12s-2.58,5.21-9.59,5.21c-8.27,0-13.55-6.53-13.55-16s5.75-16,13.84-16Zm1.44,25.59c3.95,0,7.67-2.88,7.67-9.65,0-4.74-2.52-9.41-7.61-9.41-4.2,0-7.67,3.42-7.67,9.47s3.12,9.59,7.61,9.59Z"></path>
                    <path class="cls-5" d="m683.22 319.09h7.55v6.77h-7.55v-6.77zm0 11.98h7.61v30.57h-7.61v-30.57z"></path>
                    <path class="cls-5" d="m713.62 330.36c7.97 0 11.75 4.55 11.75 4.55l-3.36 5.21s-3.17-3.3-7.97-3.3c-5.63 0-9.29 4.26-9.29 9.47s3.72 9.59 9.53 9.59c5.15 0 8.99-3.89 8.99-3.89l2.94 5.39s-4.38 4.98-12.59 4.98c-10.13 0-16.61-7.13-16.61-16s6.48-16 16.61-16z"></path>
                    <path class="cls-5" d="M733.23,337.61h-3.96v-6.06h4.14v-8.81h7.43v8.81h6.95v6.06h-6.95v11.87c0,5.04,3.95,5.75,6.05,5.75,.84,0,1.38-.12,1.38-.12v6.65s-.9,.18-2.34,.18c-4.26,0-12.71-1.26-12.71-11.51v-12.83Z"></path>
                    <path class="cls-5" d="m754.51 319.09h7.55v6.77h-7.55v-6.77zm0 11.98h7.61v30.57h-7.61v-30.57z"></path>
                    <path class="cls-5" d="M785.03,330.36c9.35,0,16.84,6.65,16.84,16s-7.49,16-16.78,16-16.84-6.59-16.84-16,7.49-16,16.78-16Zm.06,25.53c4.91,0,9.05-3.83,9.05-9.53s-4.14-9.53-9.05-9.53-9.11,3.9-9.11,9.53,4.14,9.53,9.11,9.53Z"></path>
                    <path class="cls-5" d="M807.99,331.08h7.31v3.54c0,1.14-.12,2.1-.12,2.1h.12c1.32-2.58,4.67-6.35,10.85-6.35,6.77,0,10.61,3.54,10.61,11.63v19.66h-7.55v-18.1c0-3.71-.96-6.23-4.85-6.23s-7.07,2.58-8.21,6.23c-.42,1.26-.54,2.64-.54,4.08v14.03h-7.61v-30.57Z"></path>
                    <path class="cls-5" d="M844.75,331.08h7.31v3.54c0,1.14-.12,2.1-.12,2.1h.12c1.32-2.58,4.67-6.35,10.85-6.35,6.77,0,10.61,3.54,10.61,11.63v19.66h-7.55v-18.1c0-3.71-.96-6.23-4.85-6.23s-7.07,2.58-8.21,6.23c-.42,1.26-.54,2.64-.54,4.08v14.03h-7.61v-30.57Z"></path>
                    <path class="cls-5" d="M897.03,342.47h1.02v-.42c0-4.02-2.52-5.39-5.87-5.39-4.37,0-8.39,2.94-8.39,2.94l-2.88-5.45s4.74-3.78,11.99-3.78c8.03,0,12.71,4.43,12.71,12.17v19.12h-7.01v-2.52c0-1.2,.12-2.16,.12-2.16h-.12c.06,0-2.34,5.39-9.29,5.39-5.46,0-10.37-3.42-10.37-9.53,0-9.71,13.13-10.37,18.1-10.37Zm-5.82,13.97c4.02,0,6.89-4.32,6.89-8.03v-.72h-1.32c-3.9,0-10.19,.54-10.19,4.8,0,2.04,1.5,3.95,4.61,3.95Z"></path>
                    <path class="cls-5" d="m913.51 319.09h7.55v6.77h-7.55v-6.77zm0 11.98h7.61v30.57h-7.61v-30.57z"></path>
                    <path class="cls-5" d="M929.52,331.08h7.31v5.28c0,1.14-.12,2.16-.12,2.16h.12c1.38-4.38,5.04-7.85,9.71-7.85,.72,0,1.38,.12,1.38,.12v7.49s-.78-.12-1.8-.12c-3.24,0-6.89,1.86-8.33,6.41-.48,1.5-.66,3.18-.66,4.98v12.11h-7.61v-30.57Z"></path>
                    <path class="cls-5" d="M966.45,330.36c8.81,0,13.55,6.41,13.55,14.5,0,.9-.18,2.94-.18,2.94h-21.1c.48,5.34,4.62,8.09,9.17,8.09,4.91,0,8.81-3.36,8.81-3.36l2.94,5.45s-4.68,4.38-12.29,4.38c-10.13,0-16.42-7.31-16.42-16,0-9.41,6.42-16,15.52-16Zm5.87,12.22c-.12-4.13-2.7-6.35-6.05-6.35-3.9,0-6.59,2.4-7.31,6.35h13.37Z"></path>
                </svg>